<?xml version="1.0" encoding="utf-8"?>
<!-- Generator: Adobe Illustrator 22.0.0, SVG Export Plug-In . SVG Version: 6.00 Build 0)  -->
<svg version="1.1" id="Layer_1" xmlns="http://www.w3.org/2000/svg" xmlns:xlink="http://www.w3.org/1999/xlink" x="0px" y="0px"
	 viewBox="0 0 36 36" style="enable-background:new 0 0 36 36;" xml:space="preserve">
<path d="M32.5,10.4h-9V8.2h9V10.4z M31.6,19.1h-7.2c0.1-1.1,0.4-1.9,1.1-2.5c0.7-0.6,1.5-0.9,2.6-0.9C30.2,15.7,31.4,16.8,31.6,19.1
	L31.6,19.1z M25.4,24.9c-0.7-0.7-1-1.7-1-3H36c0-0.4,0-0.6,0-0.8c0-1.6-0.3-3.1-0.9-4.4c-0.6-1.3-1.5-2.3-2.7-3.1
	c-1.2-0.8-2.6-1.2-4.2-1.2c-2.4,0-4.4,0.8-5.9,2.4c-1.5,1.6-2.3,3.6-2.3,6.1c0,2.5,0.7,4.6,2.2,6.1c1.5,1.5,3.5,2.3,6,2.3
	c3.8,0,6.3-1.8,7.5-5.4h-3.9c-0.2,0.6-0.6,1.2-1.3,1.5c-0.7,0.4-1.4,0.6-2.1,0.6C27.1,26,26.1,25.6,25.4,24.9z M4.9,19h5.3
	c2.3,0,3.5,1.1,3.5,3.2c0,2-1.2,2.9-3.6,2.9H4.9V19z M4.9,10.5h4.6c2.2,0,3.3,0.8,3.3,2.5c0,0.9-0.3,1.6-0.8,2
	c-0.5,0.4-1.3,0.6-2.2,0.6H4.9V10.5z M0,28.9h10.7c0.8,0,1.6-0.1,2.4-0.2c0.7-0.2,1.5-0.4,2.1-0.7c0.7-0.3,1.2-0.8,1.7-1.2
	c0.5-0.5,0.9-1.1,1.2-1.8c0.3-0.7,0.4-1.5,0.4-2.4c0-1.4-0.3-2.6-1-3.6c-0.7-1-1.7-1.6-3-2c2-1,3-2.5,3-4.6c0-1.1-0.2-2-0.6-2.7
	c-0.4-0.7-0.9-1.3-1.6-1.7C14.7,7.4,14,7.1,13.2,7c-0.8-0.2-1.7-0.2-2.7-0.2H0V28.9z"/>
</svg>
