<?xml version="1.0" encoding="utf-8"?>
<!-- Generator: Adobe Illustrator 22.0.0, SVG Export Plug-In . SVG Version: 6.00 Build 0)  -->
<svg version="1.1" id="Layer_1" xmlns="http://www.w3.org/2000/svg" xmlns:xlink="http://www.w3.org/1999/xlink" x="0px" y="0px"
	 viewBox="0 0 26 26" style="enable-background:new 0 0 26 26;" xml:space="preserve">
<path d="M16.1,13l9.4-9.4c0.9-0.9,0.9-2.3,0-3.1c-0.9-0.9-2.3-0.9-3.1,0L13,9.9L3.6,0.5c-0.9-0.9-2.3-0.9-3.1,0
	c-0.9,0.9-0.9,2.3,0,3.1L9.9,13l-9.4,9.4c-0.9,0.9-0.9,2.3,0,3.1c0.9,0.9,2.3,0.9,3.1,0l9.4-9.4l9.4,9.4c0.9,0.9,2.3,0.9,3.1,0
	c0.9-0.9,0.9-2.3,0-3.1L16.1,13z"/>
</svg>
