<?xml version="1.0" encoding="utf-8"?>
<!-- Generator: Adobe Illustrator 22.0.0, SVG Export Plug-In . SVG Version: 6.00 Build 0)  -->
<svg version="1.1" id="Layer_1" xmlns="http://www.w3.org/2000/svg" xmlns:xlink="http://www.w3.org/1999/xlink" x="0px" y="0px"
	 viewBox="0 0 28 28" style="enable-background:new 0 0 28 28;" xml:space="preserve">
<path d="M5.4,0.3C4,0.3,2.8,0.8,1.8,1.8c-1,1-1.5,2.2-1.5,3.6v17.1c0,1.4,0.5,2.6,1.5,3.6c1,1,2.2,1.5,3.6,1.5h9.5V17.1h-3.6v-4.1
	h3.6V9.9c0-1.7,0.5-3.1,1.5-4c1-1,2.3-1.4,3.9-1.4c1.4,0,2.4,0.1,3.2,0.2v3.7l-2.2,0c-0.8,0-1.4,0.2-1.6,0.5
	c-0.3,0.3-0.4,0.8-0.4,1.5v2.6h4.1l-0.5,4.1h-3.6v10.6h3.4c1.4,0,2.6-0.5,3.6-1.5c1-1,1.5-2.2,1.5-3.6V5.4c0-1.4-0.5-2.6-1.5-3.6
	c-1-1-2.2-1.5-3.6-1.5H5.4z"/>
</svg>
