<?xml version="1.0" encoding="utf-8"?>
<!-- Generator: Adobe Illustrator 22.0.0, SVG Export Plug-In . SVG Version: 6.00 Build 0)  -->
<svg version="1.1" id="Layer_1" xmlns="http://www.w3.org/2000/svg" xmlns:xlink="http://www.w3.org/1999/xlink" x="0px" y="0px"
	 viewBox="0 0 36 36" style="enable-background:new 0 0 36 36;" xml:space="preserve">
<path d="M18,24c-1.7,0-3.1-0.6-4.2-1.8C12.6,21.1,12,19.7,12,18c0-1.7,0.6-3.1,1.8-4.2S16.3,12,18,12c1.7,0,3.1,0.6,4.2,1.8
	S24,16.3,24,18c0,1.7-0.6,3.1-1.8,4.2C21.1,23.4,19.7,24,18,24z M18,8.8c-2.6,0-4.7,0.9-6.5,2.7c-1.8,1.8-2.7,4-2.7,6.5
	c0,2.6,0.9,4.7,2.7,6.5c1.8,1.8,4,2.7,6.5,2.7c2.6,0,4.7-0.9,6.5-2.7c1.8-1.8,2.7-4,2.7-6.5c0-2.6-0.9-4.7-2.7-6.5
	C22.7,9.7,20.6,8.8,18,8.8z M27.6,6.2c-0.6,0-1.1,0.2-1.5,0.6c-0.4,0.4-0.6,0.9-0.6,1.5c0,0.6,0.2,1.1,0.6,1.5
	c0.4,0.4,0.9,0.6,1.5,0.6c0.6,0,1.1-0.2,1.5-0.6c0.4-0.4,0.6-0.9,0.6-1.5c0-0.6-0.2-1.1-0.6-1.5C28.7,6.4,28.2,6.2,27.6,6.2z
	 M22.3,3.2c0.6,0,1.3,0,2.3,0.1c0.9,0,1.7,0.1,2.4,0.2c0.7,0.1,1.2,0.3,1.7,0.4c0.8,0.3,1.5,0.8,2.1,1.4c0.6,0.6,1,1.3,1.4,2.1
	c0.2,0.5,0.3,1,0.4,1.7c0.1,0.7,0.2,1.5,0.2,2.4c0,0.9,0.1,1.7,0.1,2.3c0,0.6,0,1.4,0,2.5c0,1.1,0,1.7,0,1.8c0,0.1,0,0.7,0,1.8
	c0,1.1,0,1.9,0,2.5c0,0.6,0,1.3-0.1,2.3c0,0.9-0.1,1.8-0.2,2.4c-0.1,0.7-0.3,1.2-0.4,1.7c-0.3,0.8-0.8,1.5-1.4,2.1
	c-0.6,0.6-1.3,1-2.1,1.4c-0.5,0.2-1,0.3-1.7,0.4c-0.7,0.1-1.5,0.2-2.4,0.2c-0.9,0-1.7,0.1-2.3,0.1c-0.6,0-1.4,0-2.5,0
	c-1.1,0-1.7,0-1.8,0c-0.1,0-0.7,0-1.8,0c-1.1,0-1.9,0-2.5,0c-0.6,0-1.3,0-2.3-0.1c-0.9,0-1.8-0.1-2.4-0.2c-0.7-0.1-1.2-0.3-1.7-0.4
	c-0.8-0.3-1.5-0.8-2.1-1.4c-0.6-0.6-1-1.3-1.4-2.1c-0.2-0.5-0.3-1-0.4-1.7c-0.1-0.7-0.2-1.5-0.2-2.4c0-0.9-0.1-1.7-0.1-2.3
	c0-0.6,0-1.4,0-2.5c0-1.1,0-1.7,0-1.8c0-0.1,0-0.7,0-1.8c0-1.1,0-1.9,0-2.5c0-0.6,0-1.3,0.1-2.3c0-0.9,0.1-1.7,0.2-2.4
	C3.6,8.4,3.8,7.8,4,7.4c0.3-0.8,0.8-1.5,1.4-2.1c0.6-0.6,1.3-1,2.1-1.4c0.5-0.2,1-0.3,1.7-0.4c0.7-0.1,1.5-0.2,2.4-0.2
	c0.9,0,1.7-0.1,2.3-0.1c0.6,0,1.4,0,2.5,0c1.1,0,1.7,0,1.8,0c0.1,0,0.7,0,1.8,0C20.9,3.2,21.7,3.2,22.3,3.2z M35.9,10.6
	C35.7,7.3,34.8,4.8,33,3s-4.3-2.7-7.5-2.9C24.1,0,21.6,0,18,0c-3.6,0-6.1,0-7.4,0.1C7.3,0.3,4.8,1.2,3,3s-2.8,4.3-2.9,7.5
	C0,11.9,0,14.4,0,18c0,3.6,0,6.1,0.1,7.4C0.3,28.7,1.2,31.2,3,33c1.8,1.8,4.3,2.7,7.5,2.9C11.9,36,14.4,36,18,36
	c3.6,0,6.1,0,7.4-0.1c3.2-0.2,5.8-1.1,7.5-2.9c1.8-1.8,2.7-4.3,2.9-7.5C36,24.1,36,21.6,36,18C36,14.4,36,11.9,35.9,10.6L35.9,10.6z
	"/>
</svg>
