<?xml version="1.0" encoding="utf-8"?>
<!-- Generator: Adobe Illustrator 22.0.0, SVG Export Plug-In . SVG Version: 6.00 Build 0)  -->
<svg version="1.1" id="Layer_1" xmlns="http://www.w3.org/2000/svg" xmlns:xlink="http://www.w3.org/1999/xlink" x="0px" y="0px"
	 viewBox="0 0 36 36" style="enable-background:new 0 0 36 36;" xml:space="preserve">
<path d="M0.4,12v23.2h7.7V12H0.4z M7.5,1.9C6.7,1.2,5.7,0.8,4.4,0.8C3.1,0.8,2,1.2,1.2,1.9C0.4,2.7,0,3.6,0,4.8
	c0,1.1,0.4,2.1,1.2,2.9C2,8.4,3,8.8,4.3,8.8h0c1.3,0,2.4-0.4,3.2-1.1c0.8-0.8,1.2-1.7,1.2-2.9C8.7,3.6,8.3,2.7,7.5,1.9z M33.6,14.1
	c-1.6-1.8-3.8-2.7-6.4-2.7c-1,0-1.9,0.1-2.7,0.4c-0.8,0.2-1.5,0.6-2,1c-0.6,0.4-1,0.8-1.3,1.2c-0.3,0.4-0.6,0.8-1,1.3h0V12h-7.7
	l0,1.1c0,0.8,0,3.1,0,6.9c0,3.9,0,8.9,0,15.2h7.7v-13c0-0.8,0.1-1.4,0.3-1.9c0.3-0.8,0.8-1.5,1.5-2c0.7-0.5,1.5-0.8,2.5-0.8
	c1.3,0,2.3,0.5,3,1.4c0.6,0.9,0.9,2.2,0.9,3.9v12.4H36V21.9C36,18.5,35.2,15.9,33.6,14.1z"/>
</svg>
