<?xml version="1.0" encoding="utf-8"?>
<!-- Generator: Adobe Illustrator 22.0.0, SVG Export Plug-In . SVG Version: 6.00 Build 0)  -->
<svg version="1.1" id="Layer_1" xmlns="http://www.w3.org/2000/svg" xmlns:xlink="http://www.w3.org/1999/xlink" x="0px" y="0px"
	 viewBox="0 0 36 36" style="enable-background:new 0 0 36 36;" xml:space="preserve">
<path d="M11.9,8.4L1.7,3.2C1.3,3,1,2.9,0.8,2.9C0.5,2.9,0.3,3,0.2,3.2C0.1,3.4,0,3.6,0,3.9v22.9c0,0.3,0.1,0.6,0.3,0.9
	C0.5,28,0.7,28.3,1,28.4l9.3,4.7c0.2,0.1,0.4,0.2,0.7,0.2c0.3,0,0.6-0.1,0.7-0.4c0.2-0.2,0.3-0.5,0.3-0.9V8.5
	C12,8.4,12,8.4,11.9,8.4L11.9,8.4z M13.3,22.5L24,27.9L13.3,10.5V22.5z M25.2,28.5l8.9,4.4c0.3,0.2,0.6,0.3,0.9,0.3
	c0.3,0,0.6-0.1,0.8-0.3c0.2-0.2,0.3-0.5,0.3-0.8V10.8L25.2,28.5z M35.9,8.3L25,2.9c-0.2-0.1-0.3-0.1-0.5-0.1c-0.5,0-0.8,0.2-1,0.6
	l-6.5,10.6l7.8,12.7c0.6-1,2.6-4.2,6-9.8c3.4-5.6,5.2-8.4,5.2-8.4C35.9,8.4,35.9,8.3,35.9,8.3L35.9,8.3z"/>
</svg>
