<?xml version="1.0" encoding="utf-8"?>
<!-- Generator: Adobe Illustrator 22.0.0, SVG Export Plug-In . SVG Version: 6.00 Build 0)  -->
<svg version="1.1" id="Layer_1" xmlns="http://www.w3.org/2000/svg" xmlns:xlink="http://www.w3.org/1999/xlink" x="0px" y="0px"
	 viewBox="0 0 38 33" style="enable-background:new 0 0 38 33;" xml:space="preserve">
<g>
	<path d="M2.2,4.6h33.6c1.2,0,2.2-1,2.2-2.3C38,1,37,0,35.8,0H2.2C1,0,0,1,0,2.3C0,3.6,1,4.6,2.2,4.6z M35.8,14.2H2.2
		c-1.2,0-2.2,1-2.2,2.3c0,1.3,1,2.3,2.2,2.3h33.6c1.2,0,2.2-1,2.2-2.3C38,15.2,37,14.2,35.8,14.2z M35.8,28.4H2.2
		c-1.2,0-2.2,1-2.2,2.3C0,32,1,33,2.2,33h33.6c1.2,0,2.2-1,2.2-2.3C38,29.4,37,28.4,35.8,28.4z"/>
</g>
</svg>
