<?xml version="1.0" encoding="utf-8"?>
<!-- Generator: Adobe Illustrator 22.0.0, SVG Export Plug-In . SVG Version: 6.00 Build 0)  -->
<svg version="1.1" id="Layer_1" xmlns="http://www.w3.org/2000/svg" xmlns:xlink="http://www.w3.org/1999/xlink" x="0px" y="0px"
	 viewBox="0 0 21 25" style="enable-background:new 0 0 21 25;" xml:space="preserve">
<path d="M10.5,23.9c-0.3,0-0.6-0.1-0.8-0.3c-0.2-0.2-0.3-0.5-0.3-0.8c0-0.3,0.1-0.6,0.3-0.8c0.2-0.2,0.5-0.3,0.8-0.3
	c0.3,0,0.6,0.1,0.8,0.3c0.2,0.2,0.3,0.5,0.3,0.8c0,0.3-0.1,0.6-0.3,0.8C11.1,23.8,10.8,23.9,10.5,23.9z M18.3,20.3
	c-0.1,0.1-0.2,0.2-0.4,0.2H3.1c-0.2,0-0.3-0.1-0.4-0.2c-0.1-0.1-0.2-0.2-0.2-0.4V2.8c0-0.2,0.1-0.3,0.2-0.4c0.1-0.1,0.2-0.2,0.4-0.2
	h14.9c0.2,0,0.3,0.1,0.4,0.2c0.1,0.1,0.2,0.2,0.2,0.4v17.1C18.5,20.1,18.4,20.2,18.3,20.3z M19.9,0.8c-0.6-0.6-1.2-0.8-2-0.8H3.1
	c-0.8,0-1.5,0.3-2,0.8C0.5,1.3,0.2,2,0.2,2.8v19.4c0,0.8,0.3,1.5,0.8,2c0.6,0.6,1.2,0.8,2,0.8h14.9c0.8,0,1.5-0.3,2-0.8
	c0.6-0.6,0.8-1.2,0.8-2V2.8C20.8,2,20.5,1.3,19.9,0.8z"/>
</svg>
