<?xml version="1.0" encoding="utf-8"?>
<!-- Generator: Adobe Illustrator 22.0.0, SVG Export Plug-In . SVG Version: 6.00 Build 0)  -->
<svg version="1.1" id="Capa_1" xmlns="http://www.w3.org/2000/svg" xmlns:xlink="http://www.w3.org/1999/xlink" x="0px" y="0px"
	 viewBox="0 0 500 500" style="enable-background:new 0 0 500 500;" xml:space="preserve">
<style type="text/css">
	.st0{fill:#EF9645;}
	.st1{fill:#FFDC5D;}
	.st2{fill:#77B255;}
</style>
<g transform="matrix(1.25 0 0 -1.25 0 45)">
	<g>
		<g>
			<path class="st0" d="M54.1-65.3c10.5,7.3,26.2,5.9,35.6-1.8L78.9-51.5c-8.7,12.4-5.6,25.7,6.8,34.4c12.4,8.7,29.4,5.7,38.1-6.7
				l98.2-140l0.8,0.3L133.1-31.7c-8.7,12.5-7.1,28.3,5.4,37.1c12.5,8.7,29.7,5.7,38.4-6.8l115.9-163.7c8.7-12.5,4.5-29.6-8-38.3
				c-2.1-1.5-4.4-2.5-6.8-3.3v-101.6H166.9v34.6c-1.6,1.4-10.8,8.5-12,10.3L47.3-104C38.5-91.4,41.5-74.1,54.1-65.3"/>
			<path class="st1" d="M30-156.4c0,0-12.6,18.4,5.8,30.9c18.3,12.6,30.9-5.8,30.9-5.8l58.4-85.2c2,3.4,4.2,6.7,6.7,9.9L50.7-88.2
				c0,0-12.6,18.3,5.8,30.9c18.3,12.6,30.9-5.8,30.9-5.8l76.3-111.2c2.8,2.3,5.7,4.6,8.7,6.9L84-38.4c0,0-12.6,18.3,5.8,30.9
				c18.3,12.6,30.9-5.8,30.9-5.8l88.4-128.9c3.2,2,6.5,3.7,9.7,5.5L136.1-16.1c0,0-12.6,18.3,5.8,30.9C160.3,27.4,172.8,9,172.8,9
				l87.4-127.4l7-10.2l6.3-9.2c-55-37.7-60.3-108.8-28.8-154.6c6.3-9.2,15.5-2.9,15.5-2.9c-37.8,55.1-26.2,116.9,28.8,154.7
				l-16.3,81.2c0,0-6.1,21.4,15.3,27.5c21.4,6.1,27.5-15.3,27.5-15.3l18.7-55.7c7.4-22.1,15.3-44.1,25.8-64.9
				c29.6-58.7,11.9-131.7-43.8-170c-60.8-41.7-143.9-26.2-185.6,34.6c-2.2,3.2-4,6.4-5.8,9.5l-0.5-0.3L30-156.4z"/>
			<g>
				<path class="st2" d="M133.5-320C89-320,44-275,44-230.5c0,6.2-4.5,11.1-10.7,11.1s-11.6-5-11.6-11.1
					c0-66.7,45-111.7,111.7-111.7c6.2,0,11.1,5.4,11.1,11.6C144.6-324.5,139.6-320,133.5-320"/>
				<path class="st2" d="M77.9-341.8c-33.4,0-55.6,22.2-55.6,55.6c0,6.2-5,11.1-11.1,11.1S0-280,0-286.1C0-330.6,33.4-364,77.9-364
					c6.2,0,11.1,5,11.1,11.1C89-346.7,84-341.8,77.9-341.8"/>
				<path class="st2" d="M267,14.2c-6.1,0-11.1-5-11.1-11.1S260.8-8,267-8c44.5,0,89-39.9,89-89c0-6.1,5-11.1,11.1-11.1
					c6.1,0,11.1,5,11.1,11.1C378.2-35.7,333.7,14.2,267,14.2"/>
				<path class="st2" d="M322.6,36c-6.1,0-11.1-4.5-11.1-10.7c0-6.2,5-11.6,11.1-11.6c33.4,0,55.2-24.8,55.2-55.2
					c0-6.2,5.5-11.1,11.6-11.1s10.7,5,10.7,11.1C400,1.3,367.1,36,322.6,36"/>
			</g>
		</g>
	</g>
</g>
</svg>
