<?xml version="1.0" encoding="utf-8"?>
<!-- Generator: Adobe Illustrator 22.0.0, SVG Export Plug-In . SVG Version: 6.00 Build 0)  -->
<svg version="1.1" id="Layer_1" xmlns="http://www.w3.org/2000/svg" xmlns:xlink="http://www.w3.org/1999/xlink" x="0px" y="0px"
	 viewBox="0 0 312 30" style="enable-background:new 0 0 312 30;" xml:space="preserve">
<g>
	<g>
		<path d="M12.9,15.8c-0.6-0.5-1.4-1.3-2-1.9L6.4,9.5c-1.1-1.1-1.2-1.9-1-2.4c0.2-0.8,1-1.4,1.9-1.5c0.8-0.1,2.2-0.1,3.5,1.5
			l3.3-2.6c-1-1.3-2.3-2.2-3.6-2.7c-1.3-0.5-2.7-0.6-4-0.3C5.4,1.7,4.3,2.2,3.4,3c-1,0.8-1.7,1.8-2,3C1.1,7.1,1.1,8.3,1.5,9.4
			c0.4,1.2,1,2.2,2.1,3.2l3.3,3.1c0.1,0.1,2.1,2.1,3.3,3.2c0.8,0.7,1.6,1.8,1.2,3c-0.3,1.1-1.4,2-2.8,2.2c-0.8,0.2-1.7,0.1-2.4-0.2
			c-1-0.4-1.9-1.1-2.6-2.1l-3.3,2.6c1.3,1.6,2.7,2.7,4.4,3.4c1,0.4,2.1,0.6,3.2,0.6c0.5,0,1.1,0,1.6-0.1c2.9-0.6,5.3-2.6,6-5.2
			c0.4-1.2,0.3-2.5-0.1-3.7C14.8,18,14.1,16.8,12.9,15.8z M53.4,19.3L48.6,8.1l-2.3-5.4l-2.2,5.5l-4.4,11.1L32.2,1.7h-4.6l12.2,27.9
			l6.6-16.1l7.1,16.1L65,1.7h-4.6L53.4,19.3z M71.4,28.4H76l2.3-5.7h9.5l2.3,5.7h4.6L83,0.4L71.4,28.4z M79.8,18.9l3.2-8.1l3.2,8.1
			H79.8z M103.7,5.4h7.3v23h4.2v-23h7.3V1.7h-18.9V5.4z M137.3,28.4h4.2V1.7h-4.2V28.4z M191.1,15.8c-0.6-0.5-1.4-1.3-2-1.9
			l-4.5-4.3c-1.1-1.1-1.2-1.9-1-2.4c0.2-0.8,1-1.4,1.9-1.5c0.8-0.1,2.2-0.1,3.5,1.5l3.3-2.6c-1-1.3-2.3-2.2-3.6-2.7
			c-1.3-0.5-2.7-0.6-4-0.3c-1.2,0.2-2.3,0.8-3.2,1.5c-1,0.8-1.7,1.8-2,3c-0.3,1.1-0.3,2.3,0.1,3.4c0.4,1.2,1,2.2,2.1,3.2l3.3,3.1
			c0.1,0.1,2.1,2.1,3.3,3.2c0.8,0.7,1.6,1.8,1.2,3c-0.3,1.1-1.4,2-2.8,2.2c-0.8,0.2-1.7,0.1-2.4-0.2c-1-0.4-1.9-1.1-2.6-2.1
			l-3.3,2.6c1.3,1.6,2.7,2.7,4.4,3.4c1,0.4,2.1,0.6,3.2,0.6c0.5,0,1.1,0,1.6-0.1c2.9-0.6,5.3-2.6,6-5.2c0.4-1.2,0.3-2.5-0.1-3.7
			C193.1,18,192.3,16.8,191.1,15.8z M230.4,5.6c-1.3-1.2-2.7-2.2-4.2-2.8c-1.7-0.7-3.4-1-5.2-1s-3.6,0.4-5.2,1
			c-1.6,0.7-3,1.6-4.2,2.8c-1.2,1.3-2.2,2.7-2.9,4.2c-0.7,1.7-1,3.4-1,5.2c0,1.8,0.4,3.6,1,5.2c0.7,1.6,1.7,3,2.9,4.2
			c1.2,1.2,2.6,2.2,4.2,2.9c1.6,0.7,3.4,1,5.2,1s3.6-0.4,5.2-1c1.6-0.7,3-1.7,4.2-2.9c1.2-1.2,2.2-2.6,2.8-4.2c0.7-1.6,1-3.4,1-5.2
			c0-1.8-0.4-3.6-1-5.2C232.6,8.2,231.7,6.8,230.4,5.6z M227.5,21.5c-1.7,1.7-4,2.7-6.5,2.7s-4.8-1-6.5-2.7s-2.7-4-2.7-6.5
			s1-4.8,2.7-6.5c1.7-1.7,4-2.7,6.5-2.7s4.8,1,6.5,2.7c1.7,1.7,2.7,4,2.7,6.5S229.2,19.8,227.5,21.5z M266.6,18.8L249.9,0.4v28h4.2
			V11.2l16.8,18.4V1.7h-4.2V18.8z M287.2,28.4h4.2V1.7h-4.2V28.4z M309.4,23.3c-1.4,0-2.5,1.2-2.5,2.5c0,1.4,1.1,2.5,2.5,2.5
			c1.4,0,2.5-1.1,2.5-2.5C311.9,24.5,310.8,23.3,309.4,23.3z"/>
	</g>
</g>
</svg>
