<?xml version="1.0" encoding="utf-8"?>
<!-- Generator: Adobe Illustrator 22.0.0, SVG Export Plug-In . SVG Version: 6.00 Build 0)  -->
<svg version="1.1" id="Layer_1" xmlns="http://www.w3.org/2000/svg" xmlns:xlink="http://www.w3.org/1999/xlink" x="0px" y="0px"
	 viewBox="0 0 802 204" style="enable-background:new 0 0 802 204;" xml:space="preserve">
<style type="text/css">
	.st0{fill:none;}
</style>
<g>
	<g>
		<path class="st0" d="M132.1,70.9H60.4V0.1H-0.2v200.1h60.6v-76.5h71.7v76.5h60.6V0.1h-60.6V70.9z M295.9,51.7
			c-46.8,0-78.9,33.9-78.9,75.9c0,47.7,35.4,76.2,80.7,76.2c21.6,0,47.4-5.7,61.8-18l-22.2-33.3c-7.2,6.3-25.2,10.2-33.3,10.2
			c-17.7,0-28.2-9-31.2-18.3h98.4v-11.1C371.2,82.3,338.5,51.7,295.9,51.7z M272.1,110.3c1.8-6.6,7.2-17.4,23.7-17.4
			c17.4,0,22.5,11.1,24,17.4H272.1z M392.7,200.3h54V0.1h-54V200.3z M479.7,200.3h54V0.1h-54V200.3z M638.1,51.7
			c-51.3,0-81.3,35.4-81.3,75.9c0,40.5,30,76.2,81.3,76.2c51.6,0,81.6-35.7,81.6-76.2C719.8,87.1,689.7,51.7,638.1,51.7z
			 M638.1,156.2c-16.5,0-25.8-12.3-25.8-28.5c0-15.9,9.3-28.2,25.8-28.2c16.8,0,26.1,12.3,26.1,28.2
			C664.2,143.9,654.9,156.2,638.1,156.2z M770.1,139.7c-17.4,0-32.1,14.7-32.1,32.1s14.7,32.1,32.1,32.1c17.4,0,32.1-14.7,32.1-32.1
			S787.5,139.7,770.1,139.7z"/>
	</g>
</g>
</svg>
