<?xml version="1.0" encoding="utf-8"?>
<!-- Generator: Adobe Illustrator 22.0.0, SVG Export Plug-In . SVG Version: 6.00 Build 0)  -->
<svg version="1.1" id="Layer_1" xmlns="http://www.w3.org/2000/svg" xmlns:xlink="http://www.w3.org/1999/xlink" x="0px" y="0px"
	 viewBox="0 0 36 36" style="enable-background:new 0 0 36 36;" xml:space="preserve">
<path d="M18,33.4c-3.7,0-6.9-1.2-9.8-3.5l0.4,0.3c0.5-1.2,1.4-2.4,2.4-3.5c1.1-1.1,2.1-2,3.1-2.7c1-0.7,2.1-1.3,3.2-1.9
	c1.2-0.6,1.9-1,2.4-1.1c0.4-0.2,0.8-0.3,1-0.4l0,0h0c1.5,4,2.6,7.9,3.3,11.7C22.1,33,20.1,33.4,18,33.4L18,33.4z M19.4,18
	c-0.1,0-0.2,0.1-0.3,0.1l-0.9,0.3c-0.6,0.2-1.4,0.6-2.3,1.1c-1,0.5-2,1.2-3.1,1.9c-1.1,0.7-2.2,1.7-3.3,2.9
	c-1.1,1.2-2.1,2.5-2.9,3.9c-1.3-1.4-2.2-3-2.9-4.7c-0.7-1.8-1-3.6-1-5.5c0-0.2,0-0.4,0-0.5c5.7,0,10.9-0.7,15.8-2.2
	c0.5,1,0.9,1.8,1.2,2.6C19.6,18,19.5,18,19.4,18z M3,14.8c0.5-2.4,1.5-4.5,3-6.4c1.5-1.9,3.3-3.3,5.5-4.4c1.9,2.6,3.8,5.5,5.7,8.9
	C12.4,14.2,7.7,14.8,3,14.8L3,14.8z M30.9,26.3c-1.2,1.8-2.6,3.3-4.3,4.4c-0.6-3.6-1.6-7.3-3-11c3.1-0.5,6.3-0.3,9.6,0.7
	C32.8,22.6,32.1,24.5,30.9,26.3z M14.3,3.1C14.3,3.1,14.3,3.1,14.3,3.1C14.3,3.1,14.3,3.1,14.3,3.1L14.3,3.1z M27.9,6.9
	C27.7,7,27.4,7.4,27,7.8c-0.5,0.5-1,0.9-1.5,1.3c-0.6,0.4-1.3,0.9-2.3,1.4c-1,0.5-2,1-3,1.4c-1.8-3.3-3.7-6.3-5.8-9
	c1.2-0.3,2.4-0.4,3.6-0.4c3.9,0,7.3,1.3,10.1,3.8C28.1,6.6,28,6.7,27.9,6.9z M33.1,17.8c-0.2,0-0.4-0.1-0.6-0.1
	c-0.2,0-0.5-0.1-0.9-0.1c-0.3-0.1-0.7-0.1-1.1-0.2c-0.4,0-0.9-0.1-1.3-0.1c-0.5,0-1-0.1-1.5-0.1c-0.5,0-1.1,0-1.6,0
	c-0.5,0-1.1,0-1.7,0c-0.6,0-1.2,0.1-1.7,0.2c0-0.1-0.1-0.2-0.2-0.4c-0.1-0.2-0.1-0.3-0.2-0.4c-0.3-0.7-0.6-1.4-1-2.2
	c1.1-0.4,2.1-0.9,3.1-1.5c1-0.6,1.8-1.1,2.3-1.5c0.6-0.4,1.1-0.9,1.7-1.4c0.5-0.5,0.9-0.8,1-1c0.2-0.2,0.3-0.4,0.4-0.6l0,0
	c2.3,2.8,3.4,6,3.5,9.6L33.1,17.8z M27,2.4C24.3,0.8,21.3,0,18,0c-3.3,0-6.3,0.8-9,2.4C6.2,4,4,6.2,2.4,9C0.8,11.7,0,14.7,0,18
	c0,3.3,0.8,6.3,2.4,9C4,29.8,6.2,32,9,33.6c2.8,1.6,5.8,2.4,9,2.4c3.3,0,6.3-0.8,9-2.4c2.8-1.6,4.9-3.8,6.6-6.6
	c1.6-2.8,2.4-5.8,2.4-9c0-3.3-0.8-6.3-2.4-9C32,6.2,29.8,4,27,2.4z"/>
</svg>
