<?xml version="1.0" encoding="utf-8"?>
<!-- Generator: Adobe Illustrator 22.0.0, SVG Export Plug-In . SVG Version: 6.00 Build 0)  -->
<svg version="1.1" id="Layer_1" xmlns="http://www.w3.org/2000/svg" xmlns:xlink="http://www.w3.org/1999/xlink" x="0px" y="0px"
	 viewBox="0 0 35 30" style="enable-background:new 0 0 35 30;" xml:space="preserve">
<g>
	<g>
		<path d="M33.8,1c-0.6-0.6-1.2-0.8-2-0.8H3.2c-0.8,0-1.5,0.3-2,0.8C0.6,1.5,0.4,2.2,0.4,3v19.4c0,0.8,0.3,1.5,0.8,2
			c0.6,0.6,1.2,0.8,2,0.8h9.7c0,0.5-0.1,0.9-0.3,1.4c-0.2,0.5-0.4,0.9-0.6,1.2c-0.2,0.4-0.3,0.6-0.3,0.8c0,0.3,0.1,0.6,0.3,0.8
			c0.2,0.2,0.5,0.3,0.8,0.3h9.1c0.3,0,0.6-0.1,0.8-0.3c0.2-0.2,0.3-0.5,0.3-0.8c0-0.2-0.1-0.4-0.3-0.8c-0.2-0.4-0.4-0.8-0.6-1.3
			c-0.2-0.5-0.3-0.9-0.3-1.4h9.7c0.8,0,1.5-0.3,2-0.8c0.6-0.6,0.8-1.2,0.8-2V3C34.6,2.2,34.4,1.5,33.8,1z M32.4,17.9
			c0,0.2-0.1,0.3-0.2,0.4c-0.1,0.1-0.2,0.2-0.4,0.2H3.2c-0.2,0-0.3-0.1-0.4-0.2c-0.1-0.1-0.2-0.2-0.2-0.4V3c0-0.2,0.1-0.3,0.2-0.4
			c0.1-0.1,0.2-0.2,0.4-0.2h28.6c0.2,0,0.3,0.1,0.4,0.2c0.1,0.1,0.2,0.2,0.2,0.4V17.9z"/>
	</g>
</g>
</svg>
