<?xml version="1.0" encoding="utf-8"?>
<!-- Generator: Adobe Illustrator 22.0.0, SVG Export Plug-In . SVG Version: 6.00 Build 0)  -->
<svg version="1.1" id="Layer_1" xmlns="http://www.w3.org/2000/svg" xmlns:xlink="http://www.w3.org/1999/xlink" x="0px" y="0px"
	 viewBox="0 0 34 34" style="enable-background:new 0 0 34 34;" xml:space="preserve">
<style type="text/css">
	.st0{fill:#155887;}
</style>
<path class="st0" d="M5.1,13.1h5.2v15.5H5.1V13.1z M9.8,10.2C9.3,10.7,8.6,11,7.7,11h0c-0.8,0-1.5-0.3-2.1-0.8
	C5.1,9.7,4.8,9.1,4.8,8.3c0-0.8,0.3-1.4,0.8-1.9c0.5-0.5,1.2-0.8,2.1-0.8c0.9,0,1.6,0.3,2.1,0.8c0.5,0.5,0.8,1.1,0.8,1.9
	C10.6,9.1,10.4,9.7,9.8,10.2z M23.7,20.3c0-2.3-0.9-3.5-2.6-3.5c-0.7,0-1.2,0.2-1.7,0.5c-0.4,0.4-0.8,0.8-1,1.3
	c-0.1,0.3-0.2,0.7-0.2,1.2v8.7h-5.2c0-9.3,0-14.5,0-15.5h5.2v2.3h0c1.1-1.7,2.6-2.6,4.7-2.6c1.8,0,3.2,0.6,4.3,1.8
	c1.1,1.2,1.6,2.9,1.6,5.2v8.9h-5.2V20.3z M32.3,1.7c-1.3-1.3-2.8-1.9-4.5-1.9H6.3C4.5-0.1,3,0.5,1.7,1.7C0.5,3-0.1,4.5-0.1,6.3v21.4
	c0,1.8,0.6,3.3,1.9,4.5c1.3,1.3,2.8,1.9,4.5,1.9h21.4c1.8,0,3.3-0.6,4.5-1.9c1.3-1.3,1.9-2.8,1.9-4.5V6.3C34.1,4.5,33.5,3,32.3,1.7z
	"/>
</svg>
