<?xml version="1.0" encoding="utf-8"?>
<!-- Generator: Adobe Illustrator 22.0.0, SVG Export Plug-In . SVG Version: 6.00 Build 0)  -->
<svg version="1.1" id="Layer_1" xmlns="http://www.w3.org/2000/svg" xmlns:xlink="http://www.w3.org/1999/xlink" x="0px" y="0px"
	 viewBox="0 0 28 24" style="enable-background:new 0 0 28 24;" xml:space="preserve">
<style type="text/css">
	.st0{fill:#FE5164;}
</style>
<path class="st0" d="M21.9,14.1C21.8,14,21.6,14,21.5,14h-1c-0.1,0-0.3,0-0.4,0.1C20,14.2,20,14.4,20,14.5v5c0,0.7-0.2,1.3-0.7,1.8
	c-0.5,0.5-1.1,0.7-1.8,0.7h-13c-0.7,0-1.3-0.2-1.8-0.7C2.2,20.8,2,20.2,2,19.5v-13c0-0.7,0.2-1.3,0.7-1.8C3.2,4.2,3.8,4,4.5,4h11
	c0.1,0,0.3,0,0.4-0.1C16,3.8,16,3.6,16,3.5v-1c0-0.1,0-0.3-0.1-0.4C15.8,2,15.6,2,15.5,2h-11C3.3,2,2.2,2.4,1.3,3.3
	C0.4,4.2,0,5.3,0,6.5v13c0,1.2,0.4,2.3,1.3,3.2C2.2,23.6,3.3,24,4.5,24h13c1.2,0,2.3-0.4,3.2-1.3c0.9-0.9,1.3-1.9,1.3-3.2v-5
	C22,14.4,22,14.2,21.9,14.1z M27.7,0.3C27.5,0.1,27.3,0,27,0h-8c-0.3,0-0.5,0.1-0.7,0.3C18.1,0.5,18,0.7,18,1c0,0.3,0.1,0.5,0.3,0.7
	L21,4.5L10.9,14.6c-0.1,0.1-0.2,0.2-0.2,0.4c0,0.1,0.1,0.3,0.2,0.4l1.8,1.8c0.1,0.1,0.2,0.2,0.4,0.2c0.1,0,0.3-0.1,0.4-0.2L23.5,7
	l2.8,2.8C26.5,9.9,26.7,10,27,10c0.3,0,0.5-0.1,0.7-0.3C27.9,9.5,28,9.3,28,9V1C28,0.7,27.9,0.5,27.7,0.3z"/>
</svg>
