<?xml version="1.0" encoding="utf-8"?>
<!-- Generator: Adobe Illustrator 22.0.0, SVG Export Plug-In . SVG Version: 6.00 Build 0)  -->
<svg version="1.1" id="Layer_1" xmlns="http://www.w3.org/2000/svg" xmlns:xlink="http://www.w3.org/1999/xlink" x="0px" y="0px"
	 viewBox="0 0 36 36" style="enable-background:new 0 0 36 36;" xml:space="preserve">
<path d="M31.8,8c1.6-1,2.7-2.3,3.2-4.1c-1.5,0.9-3,1.5-4.7,1.8c-1.5-1.6-3.3-2.3-5.4-2.3c-2,0-3.8,0.7-5.2,2.2
	c-1.4,1.4-2.2,3.2-2.2,5.2c0,0.5,0.1,1.1,0.2,1.7c-3-0.2-5.8-0.9-8.5-2.3C6.6,8.8,4.4,7,2.5,4.7c-0.7,1.1-1,2.4-1,3.7
	c0,1.3,0.3,2.4,0.9,3.5c0.6,1.1,1.4,2,2.4,2.6c-1.2,0-2.3-0.4-3.3-0.9v0.1c0,1.8,0.6,3.3,1.7,4.7c1.1,1.3,2.5,2.2,4.2,2.5
	c-0.6,0.2-1.3,0.3-1.9,0.3c-0.4,0-0.9,0-1.4-0.1c0.5,1.5,1.3,2.7,2.6,3.6c1.3,1,2.7,1.4,4.3,1.5c-2.7,2.1-5.7,3.2-9.2,3.2
	c-0.7,0-1.2,0-1.8-0.1c3.4,2.2,7.2,3.3,11.3,3.3c2.6,0,5.1-0.4,7.4-1.2c2.3-0.8,4.3-1.9,5.9-3.3c1.6-1.4,3-3,4.2-4.8
	c1.2-1.8,2.1-3.7,2.6-5.7c0.6-2,0.9-3.9,0.9-5.9c0-0.4,0-0.7,0-1C33.7,9.6,35,8.3,36,6.9C34.6,7.5,33.2,7.8,31.8,8L31.8,8z"/>
</svg>
